<svg xmlns="http://www.w3.org/2000/svg" width="278.001" height="147.155" viewBox="0 0 278.001 147.155">
  <g id="Group_53" data-name="Group 53" transform="translate(-38.928 -977.035)">
    <path id="Path_1" data-name="Path 1" d="M107.539,978.043s0,79.612,0,79.658c-.237,16.174-15.27,29.22-33.775,29.22s-33.541-13.046-33.779-29.22l-.053-79.658,19.188.145.023,68.857c.1,13.1,3.546,19.331,14.553,19.331,11.09,0,14.449-6.23,14.552-19.331,0-.037,0-68.857,0-68.857Z" fill="#111411" stroke="#efefef" stroke-miterlimit="10" stroke-width="2"/>
    <path id="Path_2" data-name="Path 2" d="M329.854,1021.514v6.694a3.052,3.052,0,0,1-3.051,3.051h-7.1v113.988H300.142V1031.259h-7.86a3.05,3.05,0,0,1-3.051-3.051v-6.694a3.051,3.051,0,0,1,3.051-3.053h7.86v-12H319.7v12h7.1A3.052,3.052,0,0,1,329.854,1021.514Z" transform="translate(-193.501 -22.056)" fill="#111411" stroke="#efefef" stroke-miterlimit="10" stroke-width="2"/>
    <rect id="Rectangle_1" data-name="Rectangle 1" width="20.834" height="9.743" rx="4.871" transform="translate(105.954 979.518)" fill="#111411" stroke="#efefef" stroke-miterlimit="10" stroke-width="2"/>
    <g id="Group_1" data-name="Group 1" transform="translate(112.523 1027.687)">
      <path id="Path_3" data-name="Path 3" d="M398.036,1199.835c-18.658,0-33.783,13.261-33.783,29.618s15.126,29.618,33.783,29.618,33.783-13.261,33.783-29.618S416.7,1199.835,398.036,1199.835Zm-.063,39.856c-6.032,0-10.922-4.287-10.922-9.575s4.89-9.576,10.922-9.576,10.922,4.287,10.922,9.576S404.006,1239.691,397.973,1239.691Z" transform="translate(-364.253 -1199.835)" fill="#111411" stroke="#efefef" stroke-miterlimit="10" stroke-width="2"/>
    </g>
    <path id="Path_4" data-name="Path 4" d="M638.818,1196.856a37.046,37.046,0,0,0-18.655,4.923h-18.9v90.958h19.56v-41.194a37.163,37.163,0,0,0,18,4.548c18.657,0,33.783-13.261,33.783-29.618S657.476,1196.856,638.818,1196.856Zm.03,39.077c-6.032,0-10.922-4.287-10.922-9.575s4.89-9.576,10.922-9.576,10.922,4.287,10.922,9.576S644.881,1235.933,638.849,1235.933Z" transform="translate(-435.689 -169.836)" fill="#111411" stroke="#efefef" stroke-miterlimit="10" stroke-width="2"/>
    <rect id="Rectangle_2" data-name="Rectangle 2" width="20.834" height="9.743" rx="4.871" transform="translate(164.885 1027.341)" fill="#111411" stroke="#efefef" stroke-miterlimit="10" stroke-width="2"/>
    <rect id="Rectangle_3" data-name="Rectangle 3" width="19.559" height="91.876" transform="translate(221.793 1031.23)" fill="#111411" stroke="#efefef" stroke-miterlimit="10" stroke-width="2"/>
    <g id="Group_2" data-name="Group 2" transform="translate(221.793 992.858)">
      <path id="Path_5" data-name="Path 5" d="M862.211,1044.231h0c5.4,0,9.779,3.839,9.779,8.573v5.567c0,1.162-4.789,7.743-7.665,11.589a2.733,2.733,0,0,1-4.229,0c-2.875-3.846-7.665-10.427-7.665-11.589V1052.8C852.432,1048.069,856.81,1044.231,862.211,1044.231Z" transform="translate(-852.432 -1044.231)" fill="#111411" stroke="#efefef" stroke-miterlimit="10" stroke-width="2"/>
      <path id="Path_6" data-name="Path 6" d="M882.417,1072.856s-11.05-26.157,3.315-26.157" transform="translate(-872.555 -1046.146)" fill="#111411" stroke="#efefef" stroke-miterlimit="10" stroke-width="2"/>
    </g>
    <rect id="Rectangle_4" data-name="Rectangle 4" width="20.834" height="9.743" rx="4.871" transform="translate(221.065 1027.267)" fill="#111411" stroke="#efefef" stroke-miterlimit="10" stroke-width="2"/>
    <g id="Group_3" data-name="Group 3" transform="translate(231.331 1027.801)">
      <path id="Path_7" data-name="Path 7" d="M1141.016,1322.947" transform="translate(-1085.961 -1295.505)" fill="#111411" stroke="#efefef" stroke-miterlimit="10" stroke-width="2"/>
      <path id="Path_8" data-name="Path 8" d="M962.547,1231.829c.042-.618.065-1.24.065-1.868,0-16.357-15.123-29.616-33.781-29.616s-33.783,13.259-33.783,29.616,15.126,29.618,33.783,29.618a35.647,35.647,0,0,0,26.4-11.138,36.1,36.1,0,0,0,24.415,9.147C979.646,1246.55,972.76,1236.921,962.547,1231.829Zm-33.425,8.258c-6.032,0-10.92-4.287-10.92-9.575s4.815-9.5,10.848-9.5,10.994,4.216,10.994,9.5S935.154,1240.087,929.122,1240.087Z" transform="translate(-895.048 -1200.345)" fill="#111411" stroke="#efefef" stroke-miterlimit="10" stroke-width="2"/>
      <path id="Path_9" data-name="Path 9" d="M1097.439,1329.164s-30.257-36.507-50.482-36.507" transform="translate(-1012.955 -1271.995)" fill="none" stroke="#efefef" stroke-miterlimit="10" stroke-width="2"/>
    </g>
  </g>
</svg>
